<svg width="14" height="14" viewBox="0 0 14 14" fill="none" xmlns="http://www.w3.org/2000/svg">
<path d="M5.25 7L6.58333 8.33333L9.25 5.66667M13.25 7C13.25 7.78793 13.0948 8.56815 12.7933 9.2961C12.4917 10.0241 12.0498 10.6855 11.4926 11.2426C10.9355 11.7998 10.2741 12.2417 9.5461 12.5433C8.81815 12.8448 8.03793 13 7.25 13C6.46207 13 5.68185 12.8448 4.9539 12.5433C4.22595 12.2417 3.56451 11.7998 3.00736 11.2426C2.45021 10.6855 2.00825 10.0241 1.70672 9.2961C1.40519 8.56815 1.25 7.78793 1.25 7C1.25 5.4087 1.88214 3.88258 3.00736 2.75736C4.13258 1.63214 5.6587 1 7.25 1C8.8413 1 10.3674 1.63214 11.4926 2.75736C12.6179 3.88258 13.25 5.4087 13.25 7Z" stroke="white" stroke-width="1.5" stroke-linecap="round" stroke-linejoin="round"/>
</svg>
