<svg width="24" height="27" viewBox="0 0 24 27" fill="none" xmlns="http://www.w3.org/2000/svg">
<path d="M20.75 19.25V12.75C20.125 12.875 19.5 13 18.875 13H18.25V20.5H5.75V11.75C5.75 8.25 8.5 5.5 12 5.5C12.125 3.875 12.875 2.5 13.875 1.375C13.5 0.875 12.75 0.5 12 0.5C10.625 0.5 9.5 1.625 9.5 3V3.375C5.75 4.5 3.25 7.875 3.25 11.75V19.25L0.75 21.75V23H23.25V21.75L20.75 19.25ZM9.5 24.25C9.5 25.625 10.625 26.75 12 26.75C13.375 26.75 14.5 25.625 14.5 24.25H9.5ZM23.25 6.125C23.25 8.5 21.25 10.5 18.875 10.5C16.5 10.5 14.5 8.5 14.5 6.125C14.5 3.75 16.5 1.75 18.875 1.75C21.25 1.75 23.25 3.75 23.25 6.125Z" fill="#A2A7AD"/>
</svg>
