<svg width="49" height="51" viewBox="0 0 49 51" fill="none" xmlns="http://www.w3.org/2000/svg">
<path d="M17.8333 25.5L22.2778 29.9444L31.1667 21.0556M44.5 25.5C44.5 28.1264 43.9827 30.7272 42.9776 33.1537C41.9725 35.5802 40.4993 37.785 38.6421 39.6421C36.785 41.4993 34.5802 42.9725 32.1537 43.9776C29.7272 44.9827 27.1264 45.5 24.5 45.5C21.8736 45.5 19.2728 44.9827 16.8463 43.9776C14.4198 42.9725 12.215 41.4993 10.3579 39.6421C8.50069 37.785 7.0275 35.5802 6.02241 33.1537C5.01732 30.7272 4.5 28.1264 4.5 25.5C4.5 20.1957 6.60714 15.1086 10.3579 11.3579C14.1086 7.60714 19.1957 5.5 24.5 5.5C29.8043 5.5 34.8914 7.60714 38.6421 11.3579C42.3929 15.1086 44.5 20.1957 44.5 25.5Z" stroke="#5F6D7E" stroke-width="3" stroke-linecap="round" stroke-linejoin="round"/>
</svg>
