<svg width="20" height="20" viewBox="0 0 20 20" fill="none" xmlns="http://www.w3.org/2000/svg">
<path d="M2.42442 10.9758C2.13978 10.3566 2.13978 9.64214 2.42442 9.02288C3.742 6.15637 6.63866 4.16602 10.0002 4.16602C13.3617 4.16602 16.2584 6.15637 17.576 9.02288C17.8606 9.64215 17.8606 10.3566 17.576 10.9758C16.2584 13.8423 13.3617 15.8327 10.0002 15.8327C6.63866 15.8327 3.74201 13.8423 2.42442 10.9758Z" stroke="#5F6D7E" stroke-width="1.5"/>
<path d="M12.5002 9.99935C12.5002 11.3801 11.3809 12.4993 10.0002 12.4993C8.61948 12.4993 7.50019 11.3801 7.50019 9.99935C7.50019 8.61864 8.61948 7.49935 10.0002 7.49935C11.3809 7.49935 12.5002 8.61864 12.5002 9.99935Z" stroke="#5F6D7E" stroke-width="1.5"/>
</svg>
