<svg width="23" height="17" viewBox="0 0 23 17" fill="none" xmlns="http://www.w3.org/2000/svg">
<path d="M3.08679 9.87151C2.81362 9.74734 2.54044 9.61075 2.26727 9.46175C1.57192 9.01474 1.10007 8.39389 0.851733 7.5992C0.603393 6.80451 0.590976 5.96016 0.814482 5.06613C1.03799 4.17211 1.47258 3.32775 2.11827 2.53307C2.76395 1.73838 3.5338 1.11753 4.42783 0.670518C5.34668 0.223506 6.25312 0 7.14715 0C7.9915 0 8.76136 0.223506 9.45671 0.670518C10.1769 1.11753 10.6612 1.73838 10.9095 2.53307C11.1578 3.32775 11.1703 4.17211 10.9467 5.06613C10.7729 5.73665 10.4873 6.36992 10.09 6.96593L4.53958 16.1297L0.292969 14.4161L3.08679 9.87151ZM14.9699 9.87151C14.6967 9.74734 14.4235 9.61075 14.1503 9.46175C13.455 9.01474 12.9831 8.39389 12.7348 7.5992C12.4865 6.80451 12.474 5.96016 12.6975 5.06613C12.921 4.17211 13.3556 3.32775 14.0013 2.53307C14.647 1.73838 15.4169 1.11753 16.3109 0.670518C17.2297 0.223506 18.1362 0 19.0302 0C19.8746 0 20.6444 0.223506 21.3398 0.670518C22.06 1.11753 22.5442 1.73838 22.7926 2.53307C23.0409 3.32775 23.0533 4.17211 22.8298 5.06613C22.656 5.73665 22.3704 6.36992 21.973 6.96593L16.4226 16.1297L12.176 14.4161L14.9699 9.87151Z" fill="white" fill-opacity="0.8"/>
</svg>
