<svg width="24" height="24" viewBox="0 0 24 24" fill="none" xmlns="http://www.w3.org/2000/svg">
<path fill-rule="evenodd" clip-rule="evenodd" d="M4.79961 2.3999C5.11787 2.3999 5.42309 2.52633 5.64814 2.75137C5.87318 2.97642 5.99961 3.28164 5.99961 3.5999V6.1211C6.99806 5.10263 8.23933 4.35507 9.6065 3.94884C10.9737 3.54261 12.4218 3.49108 13.8143 3.79911C15.2069 4.10713 16.4982 4.76457 17.5665 5.7095C18.6348 6.65443 19.445 7.85575 19.9208 9.2003C19.9785 9.35001 20.0056 9.50978 20.0005 9.67015C19.9954 9.83052 19.9582 9.98824 19.8911 10.134C19.824 10.2797 19.7283 10.4105 19.6098 10.5186C19.4912 10.6268 19.3522 10.71 19.2009 10.7635C19.0496 10.8169 18.8892 10.8395 18.729 10.8298C18.5688 10.8202 18.4122 10.7785 18.2685 10.7073C18.1247 10.6361 17.9966 10.5367 17.8919 10.4152C17.7872 10.2936 17.7079 10.1522 17.6588 9.9995C17.2966 8.97568 16.6634 8.06932 15.8266 7.37699C14.9899 6.68467 13.981 6.23232 12.9075 6.06816C11.834 5.904 10.736 6.03416 9.7306 6.44479C8.72521 6.85542 7.85006 7.53113 7.19841 8.3999H10.7996C11.1179 8.3999 11.4231 8.52633 11.6481 8.75137C11.8732 8.97642 11.9996 9.28164 11.9996 9.5999C11.9996 9.91816 11.8732 10.2234 11.6481 10.4484C11.4231 10.6735 11.1179 10.7999 10.7996 10.7999H4.79961C4.48135 10.7999 4.17612 10.6735 3.95108 10.4484C3.72604 10.2234 3.59961 9.91816 3.59961 9.5999V3.5999C3.59961 3.28164 3.72604 2.97642 3.95108 2.75137C4.17612 2.52633 4.48135 2.3999 4.79961 2.3999ZM4.80921 13.2683C4.95781 13.2158 5.1153 13.1931 5.27268 13.2015C5.43005 13.2099 5.58424 13.2492 5.72643 13.3172C5.86861 13.3851 5.99602 13.4804 6.10137 13.5977C6.20672 13.7149 6.28794 13.8517 6.34041 14.0003C6.70265 15.0241 7.33586 15.9305 8.17259 16.6228C9.00932 17.3151 10.0182 17.7675 11.0917 17.9316C12.1653 18.0958 13.2632 17.9656 14.2686 17.555C15.274 17.1444 16.1492 16.4687 16.8008 15.5999H13.1996C12.8813 15.5999 12.5761 15.4735 12.3511 15.2484C12.126 15.0234 11.9996 14.7182 11.9996 14.3999C11.9996 14.0816 12.126 13.7764 12.3511 13.5514C12.5761 13.3263 12.8813 13.1999 13.1996 13.1999H19.1996C19.5179 13.1999 19.8231 13.3263 20.0481 13.5514C20.2732 13.7764 20.3996 14.0816 20.3996 14.3999V20.3999C20.3996 20.7182 20.2732 21.0234 20.0481 21.2484C19.8231 21.4735 19.5179 21.5999 19.1996 21.5999C18.8813 21.5999 18.5761 21.4735 18.3511 21.2484C18.126 21.0234 17.9996 20.7182 17.9996 20.3999V17.8787C17.0012 18.8972 15.7599 19.6447 14.3927 20.051C13.0255 20.4572 11.5775 20.5087 10.1849 20.2007C8.79228 19.8927 7.50102 19.2352 6.4327 18.2903C5.36439 17.3454 4.55418 16.1441 4.07841 14.7995C4.02592 14.6509 4.00322 14.4934 4.0116 14.336C4.01998 14.1787 4.05928 14.0245 4.12726 13.8823C4.19523 13.7401 4.29055 13.6127 4.40776 13.5073C4.52498 13.402 4.6606 13.3208 4.80921 13.2683Z" fill="#A2A7AD"/>
</svg>
