<svg width="20" height="20" viewBox="0 0 20 20" fill="none" xmlns="http://www.w3.org/2000/svg">
<path d="M18.637 19.6976C18.9299 19.9905 19.4048 19.9905 19.6976 19.6976C19.9905 19.4048 19.9905 18.9299 19.6976 18.637L18.637 19.6976ZM15.182 8.383C15.182 12.138 12.138 15.182 8.383 15.182V16.682C12.9664 16.682 16.682 12.9664 16.682 8.383H15.182ZM8.383 15.182C4.62801 15.182 1.58398 12.138 1.58398 8.383H0.0839844C0.0839844 12.9664 3.79958 16.682 8.383 16.682V15.182ZM1.58398 8.383C1.58398 4.62801 4.62801 1.58398 8.383 1.58398V0.0839844C3.79958 0.0839844 0.0839844 3.79958 0.0839844 8.383H1.58398ZM8.383 1.58398C12.138 1.58398 15.182 4.62801 15.182 8.383H16.682C16.682 3.79958 12.9664 0.0839844 8.383 0.0839844V1.58398ZM13.2448 14.3055L18.637 19.6976L19.6976 18.637L14.3055 13.2448L13.2448 14.3055Z" fill="#5F6D7E"/>
</svg>
