<svg width="24" height="24" viewBox="0 0 24 24" fill="none" xmlns="http://www.w3.org/2000/svg">
<path d="M6.4 4C5.76348 4 5.15303 4.25286 4.70294 4.70294C4.25286 5.15303 4 5.76348 4 6.4V8.8C4 9.43652 4.25286 10.047 4.70294 10.4971C5.15303 10.9471 5.76348 11.2 6.4 11.2H8.8C9.43652 11.2 10.047 10.9471 10.4971 10.4971C10.9471 10.047 11.2 9.43652 11.2 8.8V6.4C11.2 5.76348 10.9471 5.15303 10.4971 4.70294C10.047 4.25286 9.43652 4 8.8 4H6.4ZM6.4 13.6C5.76348 13.6 5.15303 13.8529 4.70294 14.3029C4.25286 14.753 4 15.3635 4 16V18.4C4 19.0365 4.25286 19.647 4.70294 20.0971C5.15303 20.5471 5.76348 20.8 6.4 20.8H8.8C9.43652 20.8 10.047 20.5471 10.4971 20.0971C10.9471 19.647 11.2 19.0365 11.2 18.4V16C11.2 15.3635 10.9471 14.753 10.4971 14.3029C10.047 13.8529 9.43652 13.6 8.8 13.6H6.4ZM13.6 6.4C13.6 5.76348 13.8529 5.15303 14.3029 4.70294C14.753 4.25286 15.3635 4 16 4H18.4C19.0365 4 19.647 4.25286 20.0971 4.70294C20.5471 5.15303 20.8 5.76348 20.8 6.4V8.8C20.8 9.43652 20.5471 10.047 20.0971 10.4971C19.647 10.9471 19.0365 11.2 18.4 11.2H16C15.3635 11.2 14.753 10.9471 14.3029 10.4971C13.8529 10.047 13.6 9.43652 13.6 8.8V6.4ZM13.6 16C13.6 15.3635 13.8529 14.753 14.3029 14.3029C14.753 13.8529 15.3635 13.6 16 13.6H18.4C19.0365 13.6 19.647 13.8529 20.0971 14.3029C20.5471 14.753 20.8 15.3635 20.8 16V18.4C20.8 19.0365 20.5471 19.647 20.0971 20.0971C19.647 20.5471 19.0365 20.8 18.4 20.8H16C15.3635 20.8 14.753 20.5471 14.3029 20.0971C13.8529 19.647 13.6 19.0365 13.6 18.4V16Z" fill="#A2A7AD"/>
</svg>
